<svg width="56" height="56" viewBox="0 0 56 56" fill="none" xmlns="http://www.w3.org/2000/svg">
<path d="M18.6665 25.6666L18.6665 22.1666C18.6665 17.012 22.8452 12.8333 27.9998 12.8333V12.8333C33.1545 12.8333 37.3332 17.012 37.3332 22.1666L37.3332 25.6666" stroke="#222B39" stroke-width="2" stroke-linecap="round"/>
<path d="M9.02768 24.6678C9.17276 22.9269 9.24529 22.0565 9.81938 21.5282C10.3935 21 11.2669 21 13.0139 21H42.9861C44.7331 21 45.6065 21 46.1806 21.5282C46.7547 22.0565 46.8272 22.9269 46.9723 24.6678L48.8195 46.8339C48.904 47.8474 48.9462 48.3542 48.6491 48.6771C48.352 49 47.8435 49 46.8264 49H9.1736C8.15655 49 7.64802 49 7.35092 48.6771C7.05382 48.3542 7.09605 47.8474 7.18051 46.8339L9.02768 24.6678Z" stroke="#222B39" stroke-width="2"/>
<path d="M28 30.3334L28 39.6667" stroke="#222B39" stroke-width="2" stroke-linecap="round" stroke-linejoin="round"/>
<path d="M32.6665 35L23.3332 35" stroke="#222B39" stroke-width="2" stroke-linecap="round" stroke-linejoin="round"/>
</svg>
