<svg width="712" height="905" viewBox="0 0 712 905" fill="none" xmlns="http://www.w3.org/2000/svg">
<path fill-rule="evenodd" clip-rule="evenodd" d="M66.5095 828.432C67.2784 854.246 70.6907 879.957 76.9999 905H207.957H215H712V0H215H207.957H29.4993L19.1615 37.7084C18.8614 38.8457 18.5509 40.0173 18.2317 41.2222C7.96641 79.966 -11.4128 153.108 8.92031 226.25C18.6085 261.755 37.4403 297.26 56.272 332.765C77.4412 372.676 98.6104 412.588 106.791 452.5C118.385 509.062 103.893 565.625 89.4006 622.187C84.5698 641.042 79.7391 659.896 75.8745 678.75C64.6652 733.436 65.3088 788.123 66.5095 828.432Z" fill="white"/>
</svg>
