<svg width="56" height="56" viewBox="0 0 56 56" fill="none" xmlns="http://www.w3.org/2000/svg">
<path d="M43.6944 10.9019L35.6627 2.84286C34.0995 1.27436 31.5595 1.27436 29.9963 2.84286L2.81405 30.1176C1.25835 31.6785 1.25835 34.2038 2.81405 35.7648L10.8457 43.8238C12.4089 45.3923 14.949 45.3923 16.5122 43.8238L43.6944 16.5491C45.2501 14.9881 45.2501 12.4629 43.6944 10.9019Z" stroke="#222B39" stroke-width="2" stroke-linecap="round" stroke-linejoin="round"/>
<path d="M29.4236 29.8667L29.3164 29.8215C23.4141 27.3341 18.6946 22.6717 16.1355 16.8V16.8" stroke="#222B39" stroke-width="2" stroke-linecap="round" stroke-linejoin="round"/>
<path d="M55 43.8666C55 49.9996 49.9393 54.9999 43.661 54.9999C37.3827 54.9999 32.322 49.9996 32.322 43.8666C32.322 37.7336 37.3827 32.7333 43.661 32.7333C49.9393 32.7333 55 37.7336 55 43.8666Z" stroke="#222B39" stroke-width="2" stroke-linecap="round" stroke-linejoin="round"/>
<path d="M47.4577 40.1333L39.8645 47.6" stroke="#222B39" stroke-width="2" stroke-linecap="round" stroke-linejoin="round"/>
</svg>
