<svg width="52" height="57" viewBox="0 0 52 57" fill="none" xmlns="http://www.w3.org/2000/svg">
<path d="M11.0278 57V27.6667M11.0278 27.6667C13.75 27.6667 20.5556 25 20.5556 19.6667C20.5556 18.7644 20.5556 17.874 20.5556 17M11.0278 27.6667C8.30555 27.6667 1.5 25 1.5 19.6667V17M20.5556 17C20.5556 9.608 20.5556 3.3847 20.5556 1V17ZM20.5556 17H11.0278M11.0278 17V1M11.0278 17H1.5M1.5 17V1M40.9722 57V27.6667M40.9722 27.6667C38.25 26.3333 31.4444 22.3333 31.4444 14.3333C31.4444 6.33333 35.5278 1 40.9722 1C46.4167 1 50.5 6.33333 50.5 14.3333C50.5 22.3333 43.6944 26.3333 40.9722 27.6667Z" stroke="#222B39" stroke-width="2"/>
</svg>
