<svg width="1439" height="173" viewBox="0 0 1439 173" fill="none" xmlns="http://www.w3.org/2000/svg">
<path d="M-0.420898 73.2385L39.563 62.1193C79.5469 51.4157 159.515 28.5537 239.483 34.4771C319.45 39.9847 399.418 73.2385 479.386 62.1193C559.354 51.4157 639.322 -4.70007 719.29 1.22326C799.258 6.73092 879.225 73.2385 959.193 78.7462C1039.16 84.6695 1119.13 28.5537 1199.1 17.8502C1279.06 6.73092 1359.03 39.9847 1399.02 56.6116L1439 73.2385V173H1399.02C1359.03 173 1279.06 173 1199.1 173C1119.13 173 1039.16 173 959.193 173C879.225 173 799.258 173 719.29 173C639.322 173 559.354 173 479.386 173C399.418 173 319.45 173 239.483 173C159.515 173 79.5469 173 39.563 173H-0.420898V73.2385Z" fill="white"/>
</svg>
