<svg width="1439" height="173" viewBox="0 0 1439 173" fill="none" xmlns="http://www.w3.org/2000/svg">
<path d="M-1 72.4519L38.9839 61.3327C78.9678 50.6291 158.936 27.7671 238.904 33.6904C318.871 39.1981 398.839 72.4519 478.807 61.3327C558.775 50.6291 638.743 -5.48669 718.711 0.43664C798.678 5.9443 878.646 72.4519 958.614 77.9596C1038.58 83.8829 1118.55 27.7671 1198.52 17.0635C1278.49 5.9443 1358.45 39.1981 1398.44 55.825L1438.42 72.4519V172.213H1398.44C1358.45 172.213 1278.49 172.213 1198.52 172.213C1118.55 172.213 1038.58 172.213 958.614 172.213C878.646 172.213 798.678 172.213 718.711 172.213C638.743 172.213 558.775 172.213 478.807 172.213C398.839 172.213 318.871 172.213 238.904 172.213C158.936 172.213 78.9678 172.213 38.9839 172.213H-1V72.4519Z" fill="#C6C5C6"/>
</svg>
