<svg width="56" height="56" viewBox="0 0 56 56" fill="none" xmlns="http://www.w3.org/2000/svg">
<path d="M26.2111 48.1056L25.7639 49H25.7639L26.2111 48.1056ZM29.7889 48.1056L30.2361 49H30.2361L29.7889 48.1056ZM31.5611 47.2195L31.1139 46.3251L31.5611 47.2195ZM32.6956 45.431L33.6945 45.4779L32.6956 45.431ZM32.5036 46.5948L33.3417 47.1403L32.5036 46.5948ZM23.3044 45.431L22.3055 45.4779L23.3044 45.431ZM24.4389 47.2195L23.9917 48.1139L24.4389 47.2195ZM23.4964 46.5948L22.6583 47.1403L23.4964 46.5948ZM20.2615 35.002L19.708 35.8349L20.2615 35.002ZM21.0192 35.8667L20.107 36.2764L21.0192 35.8667ZM20.7569 35.3783L21.5196 34.7317L20.7569 35.3783ZM35.7385 35.002L36.292 35.8349L35.7385 35.002ZM34.9808 35.8667L35.893 36.2764L34.9808 35.8667ZM35.2431 35.3783L34.4804 34.7317L35.2431 35.3783ZM41 23.3334C41 27.8554 38.692 31.8387 35.1851 34.1692L36.292 35.8349C40.333 33.1496 43 28.5532 43 23.3334H41ZM28 10.3334C35.1797 10.3334 41 16.1537 41 23.3334H43C43 15.0491 36.2843 8.33337 28 8.33337V10.3334ZM15 23.3334C15 16.1537 20.8203 10.3334 28 10.3334V8.33337C19.7157 8.33337 13 15.0491 13 23.3334H15ZM20.8149 34.1692C17.308 31.8387 15 27.8554 15 23.3334H13C13 28.5532 15.667 33.1496 19.708 35.8349L20.8149 34.1692ZM24.3033 45.3842C24.1422 41.9517 23.3361 38.5842 21.9314 35.457L20.107 36.2764C21.409 39.175 22.1562 42.2964 22.3055 45.4779L24.3033 45.3842ZM26.6584 47.2112L24.8861 46.3251L23.9917 48.1139L25.7639 49L26.6584 47.2112ZM29.3416 47.2112C28.4971 47.6335 27.5029 47.6335 26.6584 47.2112L25.7639 49C27.1716 49.7039 28.8284 49.7039 30.2361 49L29.3416 47.2112ZM31.1139 46.3251L29.3416 47.2112L30.2361 49L32.0083 48.1139L31.1139 46.3251ZM34.0686 35.457C32.6639 38.5842 31.8578 41.9517 31.6967 45.3842L33.6945 45.4779C33.8438 42.2964 34.591 39.175 35.893 36.2764L34.0686 35.457ZM32.0083 48.1139C32.2558 47.9902 32.5054 47.8666 32.7067 47.7403C32.9246 47.6037 33.159 47.421 33.3417 47.1403L31.6655 46.0492C31.7002 45.996 31.7281 45.9933 31.6442 46.0459C31.5437 46.109 31.396 46.184 31.1139 46.3251L32.0083 48.1139ZM31.6967 45.3842C31.6812 45.715 31.6718 45.8949 31.6538 46.023C31.638 46.1362 31.627 46.1084 31.6655 46.0492L33.3417 47.1403C33.5283 46.8536 33.5987 46.556 33.6345 46.3003C33.6683 46.0594 33.6808 45.7713 33.6945 45.4779L31.6967 45.3842ZM22.3055 45.4779C22.3192 45.7713 22.3317 46.0594 22.3655 46.3003C22.4013 46.556 22.4717 46.8536 22.6583 47.1403L24.3345 46.0492C24.373 46.1084 24.362 46.1362 24.3462 46.023C24.3282 45.8949 24.3188 45.715 24.3033 45.3842L22.3055 45.4779ZM24.8861 46.3251C24.604 46.184 24.4563 46.109 24.3558 46.0459C24.2719 45.9933 24.2998 45.996 24.3345 46.0492L22.6583 47.1403C22.841 47.421 23.0754 47.6037 23.2933 47.7403C23.4946 47.8666 23.7442 47.9902 23.9917 48.1139L24.8861 46.3251ZM19.708 35.8349C19.8509 35.9298 19.9274 35.9811 19.9814 36.0209C20.0295 36.0566 20.0183 36.0536 19.9941 36.025L21.5196 34.7317C21.314 34.4891 21.0287 34.3112 20.8149 34.1692L19.708 35.8349ZM21.9314 35.457C21.839 35.2512 21.7231 34.9717 21.5196 34.7317L19.9941 36.025C19.9765 36.0042 19.9741 35.9939 19.9921 36.0286C20.016 36.0746 20.0457 36.1399 20.107 36.2764L21.9314 35.457ZM35.1851 34.1692C34.9713 34.3112 34.686 34.4891 34.4804 34.7317L36.0059 36.025C35.9817 36.0536 35.9705 36.0566 36.0186 36.0209C36.0726 35.9811 36.1491 35.9298 36.292 35.8349L35.1851 34.1692ZM35.893 36.2764C35.9543 36.1399 35.984 36.0746 36.0079 36.0286C36.0259 35.9939 36.0235 36.0042 36.0059 36.025L34.4804 34.7317C34.2769 34.9717 34.161 35.2512 34.0686 35.457L35.893 36.2764Z" fill="#222B39"/>
<path d="M34.982 37.3334V37.3334C30.7561 40.158 25.2446 40.158 21.0188 37.3334V37.3334" stroke="#222B39" stroke-width="2"/>
</svg>
