<svg width="56" height="56" viewBox="0 0 56 56" fill="none" xmlns="http://www.w3.org/2000/svg">
<path d="M28 46.6667V15.3334C28 12.5049 28 11.0907 27.1213 10.2121C26.2426 9.33337 24.8284 9.33337 22 9.33337H9C8.05719 9.33337 7.58579 9.33337 7.29289 9.62627C7 9.91916 7 10.3906 7 11.3334V37.6667C7 38.6095 7 39.0809 7.29289 39.3738C7.58579 39.6667 8.05719 39.6667 9 39.6667H22C24.8284 39.6667 26.2426 39.6667 27.1213 40.5454C28 41.4241 28 42.8383 28 45.6667V46.6667Z" stroke="#222B39" stroke-width="2"/>
<path d="M28 46.6667V15.3334C28 12.5049 28 11.0907 28.8787 10.2121C29.7574 9.33337 31.1716 9.33337 34 9.33337H47C47.9428 9.33337 48.4142 9.33337 48.7071 9.62627C49 9.91916 49 10.3906 49 11.3334V37.6667C49 38.6095 49 39.0809 48.7071 39.3738C48.4142 39.6667 47.9428 39.6667 47 39.6667H34C31.1716 39.6667 29.7574 39.6667 28.8787 40.5454C28 41.4241 28 42.8383 28 45.6667V46.6667Z" stroke="#222B39" stroke-width="2"/>
</svg>
